<svg xmlns="http://www.w3.org/2000/svg" viewBox="0 0 2500 2500">
  <path fill="#000000" d="M1250,0C559.6,0,0,559.6,0,1250s559.6,1250,1250,1250s1250-559.6,1250-1250S1940.4,0,1250,0z"/>
  <path fill="#FFFFFF" d="M1820.4,549.8h233.2l-485.5,503.4c-175.8,182.3-460.8,182.3-636.2,0L446.3,549.8h233.2l368.7,382.4
    c111.5,115.3,291.8,115.3,403,0L1820.4,549.8z M676.6,1950.2H443.3l488.6-506.8c175.8-182.3,460.8-182.3,636.6,0l488.6,506.8
    h-233.3l-371.8-385.8c-111.5-115.3-291.8-115.3-403,0L676.6,1950.2z"/>
</svg>